<svg width="480pt" height="290pt" viewBox="0 0 480 290" version="1.1" xmlns="http://www.w3.org/2000/svg" xmlns:xlink="http://www.w3.org/1999/xlink" xmlns:xml="http://www.w3.org/XML/1998/namespace">
  <g id="surface2" transform="matrix(1,0,0,1,0,0)">
    <path style=" stroke:none;fill-rule:evenodd;fill:rgb(92.941176%,61.568627%,9.803922%);fill-opacity:1;" d="M 258.250000 135.898438 L 240.000000 117.648438 L 240.050781 164.050781 L 261.601562 164.050781 L 258.250000 135.898438 M 276.000000 116.898438 L 257.050781 97.949219 L 261.148438 134.101562 L 285.050781 157.851562 L 276.000000 116.898438 M 253.648438 94.550781 L 240.000000 80.898438 L 240.000000 112.800781 L 257.601562 130.550781 L 253.648438 94.550781 M 268.750000 84.050781 L 253.898438 69.199219 L 256.550781 92.601562 L 274.648438 110.699219 L 268.750000 84.050781 M 250.398438 65.648438 L 240.000000 55.300781 L 240.000000 76.050781 L 253.000000 89.148438 L 250.398438 65.648438 M 286.351562 164.050781 L 264.648438 164.050781 L 261.800781 139.449219 L 286.351562 164.050781 "/>
    <path style=" stroke:none;fill-rule:evenodd;fill:rgb(57.647059%,58.431373%,59.607843%);fill-opacity:1;" d="M 221.550781 135.898438 L 239.949219 117.648438 L 240.000000 164.050781 L 218.250000 164.050781 L 221.550781 135.898438 M 204.000000 116.898438 L 222.750000 97.949219 L 218.699219 134.101562 L 194.898438 157.851562 L 204.000000 116.898438 M 226.300781 94.550781 L 239.949219 80.898438 L 239.949219 112.800781 L 222.250000 130.550781 L 226.300781 94.550781 M 211.199219 84.050781 L 226.050781 69.199219 L 223.398438 92.601562 L 205.300781 110.699219 L 211.199219 84.050781 M 193.601562 164.050781 L 215.199219 164.050781 L 218.148438 139.449219 L 193.601562 164.050781 M 229.601562 65.648438 L 239.949219 55.300781 L 239.949219 76.050781 L 226.949219 89.148438 L 229.601562 65.648438 "/>
  </g>
  <g id="surface4">
    <text style="fill:rgb(150,150,152)" font-family="Albertus Medium" font-size="50" id="0" transform="matrix(1,0,0,1,132.6,169) translate(3.0949999999999998,52.995)" xml:space="preserve"><![CDATA[DörrWahl]]></text>
  </g>
</svg>